<svg xmlns="http://www.w3.org/2000/svg" xmlns:xlink="http://www.w3.org/1999/xlink" width="84" height="84" viewBox="0 0 84 84">
  <defs>
    <filter id="Rectangle_464" x="-1.5" y="-1.5" width="87" height="86" filterUnits="userSpaceOnUse">
      <feOffset input="SourceAlpha"/>
      <feGaussianBlur stdDeviation="2.5" result="blur"/>
      <feFlood flood-color="#aac7e5"/>
      <feComposite operator="in" in2="blur"/>
      <feComposite in="SourceGraphic"/>
    </filter>
    <filter id="Rectangle_503" x="-1.5" y="-1.5" width="87" height="86" filterUnits="userSpaceOnUse">
      <feOffset input="SourceAlpha"/>
      <feGaussianBlur stdDeviation="2.5" result="blur-2"/>
      <feFlood flood-color="#aac7e5"/>
      <feComposite operator="in" in2="blur-2"/>
      <feComposite in="SourceGraphic"/>
    </filter>
    <clipPath id="clip-accordion">
      <rect width="84" height="84"/>
    </clipPath>
  </defs>
  <g id="accordion" clip-path="url(#clip-accordion)">
    <rect width="84" height="84" fill="#fff"/>
    <g id="Group_275" data-name="Group 275" transform="translate(-552 -48)">
      <g id="Group_262" data-name="Group 262" transform="translate(-342 -801)">
        <path id="Union_9" data-name="Union 9" d="M3,14.333H81a3,3,0,0,1,3,3v78a3,3,0,0,1-3,3H3a3,3,0,0,1-3-3v-78A3,3,0,0,1,3,14.333Z" transform="translate(894 834.667)" fill="#e1ecf7"/>
        <g transform="matrix(1, 0, 0, 1, 894, 849)" filter="url(#Rectangle_464)">
          <rect id="Rectangle_464-2" data-name="Rectangle 464" width="72" height="71" rx="3" transform="translate(6 6)" fill="#fff"/>
        </g>
        <path id="Rectangle_465" data-name="Rectangle 465" d="M3,0H69a3,3,0,0,1,3,3v9a0,0,0,0,1,0,0H0a0,0,0,0,1,0,0V3A3,3,0,0,1,3,0Z" transform="translate(900 855)" fill="#215a9c"/>
        <path id="Rectangle_470" data-name="Rectangle 470" d="M3,0H69a3,3,0,0,1,3,3v9a0,0,0,0,1,0,0H0a0,0,0,0,1,0,0V3A3,3,0,0,1,3,0Z" transform="translate(972 926) rotate(180)" fill="#215a9c"/>
        <rect id="Rectangle_471" data-name="Rectangle 471" width="72" height="12" transform="translate(972 912) rotate(180)" fill="#215a9c"/>
        <rect id="Rectangle_472" data-name="Rectangle 472" width="72" height="2" transform="translate(972 914) rotate(180)" fill="#79a1d0"/>
        <rect id="Rectangle_467" data-name="Rectangle 467" width="32" height="2" transform="translate(907.991 874.96)" fill="#185a6a"/>
        <rect id="Rectangle_468" data-name="Rectangle 468" width="16" height="2" transform="translate(907.991 881.96)" fill="#185a6a"/>
        <rect id="Rectangle_469" data-name="Rectangle 469" width="24.009" height="2" transform="translate(907.991 888.96)" fill="#185a6a"/>
        <path id="Icon_ionic-md-arrow-dropup" data-name="Icon ionic-md-arrow-dropup" d="M9,13.5l4.651,4.651L18.3,13.5Z" transform="translate(976.651 876.977) rotate(180)" fill="#fff"/>
        <path id="Icon_ionic-md-arrow-dropup-2" data-name="Icon ionic-md-arrow-dropup" d="M9,13.5l4.651,4.651L18.3,13.5Z" transform="translate(949.349 890.174)" fill="#fff"/>
        <path id="Icon_ionic-md-arrow-dropup-3" data-name="Icon ionic-md-arrow-dropup" d="M9,13.5l4.651,4.651L18.3,13.5Z" transform="translate(949.349 904.174)" fill="#fff"/>
      </g>
      <path id="Union_16" data-name="Union 16" d="M3,14.333H81a3,3,0,0,1,3,3v78a3,3,0,0,1-3,3H3a3,3,0,0,1-3-3v-78A3,3,0,0,1,3,14.333Z" transform="translate(552 33.667)" fill="#d0e0f0"/>
      <g transform="matrix(1, 0, 0, 1, 552, 48)" filter="url(#Rectangle_503)">
        <rect id="Rectangle_503-2" data-name="Rectangle 503" width="72" height="71" rx="3" transform="translate(6 6)" fill="#fff"/>
      </g>
      <path id="Rectangle_504" data-name="Rectangle 504" d="M3,0H69a3,3,0,0,1,3,3v9a0,0,0,0,1,0,0H0a0,0,0,0,1,0,0V3A3,3,0,0,1,3,0Z" transform="translate(558 54)" fill="#e1ecf7"/>
      <path id="Rectangle_505" data-name="Rectangle 505" d="M3,0H69a3,3,0,0,1,3,3v9a0,0,0,0,1,0,0H0a0,0,0,0,1,0,0V3A3,3,0,0,1,3,0Z" transform="translate(630 125) rotate(180)" fill="#e1ecf7"/>
      <rect id="Rectangle_506" data-name="Rectangle 506" width="72" height="12" transform="translate(630 111) rotate(180)" fill="#e1ecf7"/>
      <rect id="Rectangle_507" data-name="Rectangle 507" width="72" height="2" transform="translate(630 113) rotate(180)" fill="#fff"/>
      <rect id="Rectangle_508" data-name="Rectangle 508" width="32" height="2" transform="translate(566 74)" fill="#6a6a6a"/>
      <rect id="Rectangle_510" data-name="Rectangle 510" width="16" height="2" transform="translate(565.991 81.96)" fill="#6a6a6a"/>
      <rect id="Rectangle_509" data-name="Rectangle 509" width="24" height="2" transform="translate(566 90)" fill="#6a6a6a"/>
      <path id="Icon_ionic-md-arrow-dropup-4" data-name="Icon ionic-md-arrow-dropup" d="M9,13.5l4.651,4.651L18.3,13.5Z" transform="translate(634.651 75.977) rotate(180)" fill="#215a9c"/>
      <path id="Icon_ionic-md-arrow-dropup-5" data-name="Icon ionic-md-arrow-dropup" d="M9,13.5l4.651,4.651L18.3,13.5Z" transform="translate(607.349 89.174)" fill="#215a9c"/>
      <path id="Icon_ionic-md-arrow-dropup-6" data-name="Icon ionic-md-arrow-dropup" d="M9,13.5l4.651,4.651L18.3,13.5Z" transform="translate(607.349 103.174)" fill="#215a9c"/>
    </g>
  </g>
</svg>
