<svg height="84" viewBox="0 0 84 84" width="84" xmlns="http://www.w3.org/2000/svg"><g stroke="#185a69" stroke-width="4"><path d="m2 2h80v80h-80z" fill="#fff"/><path d="m2 2h80v15h-80z" fill="#eaeaea"/><path d="m2 53h80v15h-80z" fill="#eaeaea"/><path d="m2 67h80v15h-80z" fill="#eaeaea"/></g><path d="m9 18.151 4.651-4.651 4.649 4.651z" fill="#185a69" transform="translate(59 43.674)"/><path d="m9 13.5 4.651 4.651 4.649-4.651z" fill="#185a69" transform="translate(59 58.674)"/><path d="m9 13.5 4.651 4.651 4.649-4.651z" fill="#185a69" transform="translate(59 -6.326)"/><path d="m11 26h32v2h-32z" fill="#6a6a6a"/><path d="m11 33h23v2h-23z" fill="#6a6a6a"/><path d="m11 40h26v2h-26z" fill="#6a6a6a"/></svg>