<svg xmlns="http://www.w3.org/2000/svg" xmlns:xlink="http://www.w3.org/1999/xlink" width="84" height="84" viewBox="0 0 84 84">
  <defs>
    <filter id="Rectangle_458" x="-0.5" y="13.5" width="85" height="56" filterUnits="userSpaceOnUse">
      <feOffset input="SourceAlpha"/>
      <feGaussianBlur stdDeviation="2.5" result="blur"/>
      <feFlood flood-color="#aac7e5"/>
      <feComposite operator="in" in2="blur"/>
      <feComposite in="SourceGraphic"/>
    </filter>
    <clipPath id="clip-alertdialog">
      <rect width="84" height="84"/>
    </clipPath>
  </defs>
  <g id="alertdialog" clip-path="url(#clip-alertdialog)">
    <rect width="84" height="84" fill="#fff"/>
    <g id="Group_277" data-name="Group 277" transform="translate(-782 -48)">
      <g id="Group_251" data-name="Group 251" transform="translate(94 -797)">
        <path id="Union_8" data-name="Union 8" d="M3,14.333H81a3,3,0,0,1,3,3v78a3,3,0,0,1-3,3H3a3,3,0,0,1-3-3v-78A3,3,0,0,1,3,14.333Z" transform="translate(688 830.667)" fill="#d0e0f0"/>
        <g transform="matrix(1, 0, 0, 1, 688, 845)" filter="url(#Rectangle_458)">
          <rect id="Rectangle_458-2" data-name="Rectangle 458" width="70" height="41" rx="3" transform="translate(7 21)" fill="#fff"/>
        </g>
        <g id="Group_251-2" data-name="Group 251" transform="translate(-351 92.947)">
          <path id="Path_114" data-name="Path 114" d="M509.616,191.682l9-15,9,15Z" transform="translate(543.384 605.372)" fill="#e9d047"/>
          <rect id="Rectangle_339" data-name="Rectangle 339" width="2" height="4" transform="translate(1061 787.053)" fill="#185a6a"/>
          <rect id="Rectangle_340" data-name="Rectangle 340" width="2" height="2" transform="translate(1061 793.053)" fill="#185a6a"/>
        </g>
        <rect id="Rectangle_461" data-name="Rectangle 461" width="12" height="5" transform="translate(726 895)" fill="#215a9c"/>
        <rect id="Rectangle_462" data-name="Rectangle 462" width="12" height="5" transform="translate(742 895)" fill="#215a9c"/>
        <rect id="Rectangle_460" data-name="Rectangle 460" width="28" height="2" transform="translate(726 877)" fill="#6a6a6a"/>
        <rect id="Rectangle_459" data-name="Rectangle 459" width="20" height="2" transform="translate(726 884)" fill="#6a6a6a"/>
      </g>
    </g>
  </g>
</svg>
