<svg height="84" viewBox="0 0 84 84" width="84" xmlns="http://www.w3.org/2000/svg"><g transform="translate(-280 -50)"><g stroke="#185a69"><path d="m282 52h80v80h-80z" fill="#eaeaea" stroke-width="4"/><rect fill="#fff" height="39" rx="1" stroke-width="4" width="64" x="290" y="73"/><g fill="#fff" stroke-width="2"><path d="m322 100h12v7h-12z" stroke="none"/><path d="m323 101h10v5h-10z" fill="none"/></g><g fill="#fff" stroke-width="2"><path d="m337 100h12v7h-12z" stroke="none"/><path d="m338 101h10v5h-10z" fill="none"/></g></g><path d="m320 81h26v2h-26z" fill="#6a6a6a"/><path d="m320 88h14v2h-14z" fill="#6a6a6a"/><path d="m509.438 192.72 9.77-16.122 9.77 16.122z" fill="#185a69" transform="translate(-213.979 -98.72)"/><path d="m304.23 83h2v5h-2z" fill="#fff"/><path d="m304.23 89.618h2v2h-2z" fill="#fff"/></g></svg>