<svg height="84" viewBox="0 0 84 84" width="84" xmlns="http://www.w3.org/2000/svg"><path d="m2 2h80v80h-80z" fill="#eaeaea" stroke="#185a69" stroke-width="4"/><rect fill="#fff" height="14" rx="1" stroke="#185a69" stroke-width="4" width="38" x="23" y="35"/><path d="m33 41h19v2h-19z" fill="#6a6a6a"/><path d="m11.214 12.214h-3.937l2.072 5.046a.689.689 0 0 1 -.35.891l-1.824.8a.656.656 0 0 1 -.866-.36l-1.969-4.798-3.216 3.307a.657.657 0 0 1 -1.124-.476v-15.945a.657.657 0 0 1 1.124-.479l10.554 10.858a.68.68 0 0 1 -.464 1.156z" fill="#185a69" transform="translate(55 43)"/></svg>