<svg height="84" viewBox="0 0 84 84" width="84" xmlns="http://www.w3.org/2000/svg"><path d="m2 2h80v80h-80z" fill="#eaeaea" stroke="#185a69" stroke-width="4"/><path d="m0 0 7.64 7.64 7.64-7.64z" fill="#185a69" transform="matrix(0 1 -1 0 17.64 58)"/><path d="m0 7.64 7.64-7.64 7.64 7.64z" fill="#185a69" transform="matrix(0 1 -1 0 74 58)"/><g fill="#fff"><rect height="39" rx="1" width="64" x="10" y="10"/><path d="m896.909 95.253-13.926-13.926-27.907 27.907" stroke="#707070" stroke-width="2" transform="translate(-822.909 -59.927)"/><path d="m882.714 90.528-9.2-9.2-18.438 18.437" stroke="#707070" stroke-width="2" transform="translate(-840.316 -50.457)"/></g><path d="m18.6 14.551a4.051 4.051 0 1 1 -4.049-4.051 4.051 4.051 0 0 1 4.049 4.051z" fill="none" stroke="#696969" stroke-linecap="round" stroke-linejoin="round" stroke-width="2" transform="translate(8.08 7.948)"/><rect fill="none" height="39" rx="1" stroke="#185a69" stroke-width="4" width="64" x="10" y="10"/></svg>