<svg xmlns="http://www.w3.org/2000/svg" xmlns:xlink="http://www.w3.org/1999/xlink" width="84" height="84" viewBox="0 0 84 84">
  <defs>
    <filter id="Rectangle_458" x="-1.5" y="-1.5" width="87" height="87" filterUnits="userSpaceOnUse">
      <feOffset input="SourceAlpha"/>
      <feGaussianBlur stdDeviation="2.5" result="blur"/>
      <feFlood flood-color="#aac7e5"/>
      <feComposite operator="in" in2="blur"/>
      <feComposite in="SourceGraphic"/>
    </filter>
    <clipPath id="clip-checkbox">
      <rect width="84" height="84"/>
    </clipPath>
  </defs>
  <g id="checkbox" clip-path="url(#clip-checkbox)">
    <rect width="84" height="84" fill="#fff"/>
    <g id="Group_281" data-name="Group 281" transform="translate(-782 -152)">
      <path id="Union_8" data-name="Union 8" d="M3,14.333H81a3,3,0,0,1,3,3v78a3,3,0,0,1-3,3H3a3,3,0,0,1-3-3v-78A3,3,0,0,1,3,14.333Z" transform="translate(782 137.667)" fill="#d0e0f0"/>
      <g transform="matrix(1, 0, 0, 1, 782, 152)" filter="url(#Rectangle_458)">
        <rect id="Rectangle_458-2" data-name="Rectangle 458" width="72" height="72" rx="3" transform="translate(6 6)" fill="#fff"/>
      </g>
      <rect id="Rectangle_460" data-name="Rectangle 460" width="28" height="2" transform="translate(817 173)" fill="#6a6a6a"/>
      <rect id="Rectangle_511" data-name="Rectangle 511" width="28" height="2" transform="translate(817 193)" fill="#6a6a6a"/>
      <rect id="Rectangle_513" data-name="Rectangle 513" width="28" height="2" transform="translate(817 213)" fill="#6a6a6a"/>
      <g id="Rectangle_44" data-name="Rectangle 44" transform="translate(799 168)" fill="none" stroke="#aac7e5" stroke-width="2">
        <rect width="12" height="12" rx="1" stroke="none"/>
        <rect x="1" y="1" width="10" height="10" fill="none"/>
      </g>
      <g id="Group_267" data-name="Group 267" transform="translate(-0.5 -0.5)">
        <rect id="Rectangle_44-2" data-name="Rectangle 44" width="12" height="12" rx="1" transform="translate(799.5 188.5)" fill="#185a69"/>
        <path id="Path_116" data-name="Path 116" d="M896.375,167.953l2,2,4-4" transform="translate(-93.875 26.047)" fill="none" stroke="#fff" stroke-width="2"/>
      </g>
      <g id="Group_266" data-name="Group 266" transform="translate(-97 111.99)">
        <g id="Rectangle_44-3" data-name="Rectangle 44" transform="translate(896 97.01)" fill="none" stroke="#aac7e5" stroke-width="2">
          <rect width="12" height="12" rx="1" stroke="none"/>
          <rect x="1" y="1" width="10" height="10" fill="none"/>
        </g>
      </g>
    </g>
  </g>
</svg>
