<svg xmlns="http://www.w3.org/2000/svg" xmlns:xlink="http://www.w3.org/1999/xlink" width="84" height="84" viewBox="0 0 84 84">
  <defs>
    <filter id="Rectangle_458" x="-0.5" y="9.5" width="85" height="60" filterUnits="userSpaceOnUse">
      <feOffset input="SourceAlpha"/>
      <feGaussianBlur stdDeviation="2.5" result="blur"/>
      <feFlood flood-color="#aac7e5"/>
      <feComposite operator="in" in2="blur"/>
      <feComposite in="SourceGraphic"/>
    </filter>
    <clipPath id="clip-dialogmodal">
      <rect width="84" height="84"/>
    </clipPath>
  </defs>
  <g id="dialogmodal" clip-path="url(#clip-dialogmodal)">
    <rect width="84" height="84" fill="#fff"/>
    <g id="Group_286" data-name="Group 286" transform="translate(-552 -256)">
      <path id="Union_8" data-name="Union 8" d="M3,14.333H81a3,3,0,0,1,3,3v78a3,3,0,0,1-3,3H3a3,3,0,0,1-3-3v-78A3,3,0,0,1,3,14.333Z" transform="translate(552 241.667)" fill="#d0e0f0"/>
      <g transform="matrix(1, 0, 0, 1, 552, 256)" filter="url(#Rectangle_458)">
        <rect id="Rectangle_458-2" data-name="Rectangle 458" width="70" height="45" rx="3" transform="translate(7 17)" fill="#fff"/>
      </g>
      <rect id="Rectangle_461" data-name="Rectangle 461" width="12" height="5" transform="translate(594 307)" fill="#215a9c"/>
      <rect id="Rectangle_462" data-name="Rectangle 462" width="12" height="5" transform="translate(610 307)" fill="#215a9c"/>
      <rect id="Rectangle_460" data-name="Rectangle 460" width="28" height="2" transform="translate(566 291)" fill="#6a6a6a"/>
      <rect id="Rectangle_459" data-name="Rectangle 459" width="20" height="2" transform="translate(566 298)" fill="#6a6a6a"/>
      <rect id="Rectangle_523" data-name="Rectangle 523" width="20" height="2" transform="translate(584 280)" fill="#6a6a6a"/>
    </g>
  </g>
</svg>
