<svg height="84" viewBox="0 0 84 84" width="84" xmlns="http://www.w3.org/2000/svg"><path d="m2 2h80v80h-80z" fill="#fff" stroke="#185a69" stroke-width="4"/><g fill="#185a69"><path d="m9 13.5 4.651 4.651 4.649-4.651z" transform="matrix(0 -1 1 0 -2.174 27.326)"/><path d="m9 13.5 4.651 4.651 4.649-4.651z" transform="translate(0 14.674)"/><path d="m9 13.5 4.651 4.651 4.649-4.651z" transform="matrix(0 -1 1 0 -2.174 82.651)"/><path d="m23 13h47v2h-47z"/><path d="m23.123 29.826h45v2h-45z"/><path d="m23.123 68.326h46.877v2h-46.877z"/></g><path d="m23.123 37.826h40v2h-40z" fill="#6a6a6a"/><path d="m23.123 45.826h45v2h-45z" fill="#6a6a6a"/><path d="m23.123 53.826h33v2h-33z" fill="#6a6a6a"/></svg>