<svg xmlns="http://www.w3.org/2000/svg" xmlns:xlink="http://www.w3.org/1999/xlink" width="84" height="84" viewBox="0 0 84 84">
  <defs>
    <filter id="Rectangle_531" x="-1.5" y="-1.5" width="87" height="87" filterUnits="userSpaceOnUse">
      <feOffset input="SourceAlpha"/>
      <feGaussianBlur stdDeviation="2.5" result="blur"/>
      <feFlood flood-color="#aac7e5"/>
      <feComposite operator="in" in2="blur"/>
      <feComposite in="SourceGraphic"/>
    </filter>
    <clipPath id="clip-disclosure">
      <rect width="84" height="84"/>
    </clipPath>
  </defs>
  <g id="disclosure" clip-path="url(#clip-disclosure)">
    <rect width="84" height="84" fill="#fff"/>
    <g id="Group_285" data-name="Group 285" transform="translate(-669 -256)">
      <path id="Union_19" data-name="Union 19" d="M3,14.333H81a3,3,0,0,1,3,3v78a3,3,0,0,1-3,3H3a3,3,0,0,1-3-3v-78A3,3,0,0,1,3,14.333Z" transform="translate(669 241.667)" fill="#d0e0f0"/>
      <g transform="matrix(1, 0, 0, 1, 669, 256)" filter="url(#Rectangle_531)">
        <rect id="Rectangle_531-2" data-name="Rectangle 531" width="72" height="72" rx="3" transform="translate(6 6)" fill="#fff"/>
      </g>
      <path id="Icon_ionic-md-arrow-dropup" data-name="Icon ionic-md-arrow-dropup" d="M9,13.5l4.651,4.651L18.3,13.5Z" transform="translate(669.326 286.989) rotate(-90)" fill="#185a69"/>
      <path id="Icon_ionic-md-arrow-dropup-2" data-name="Icon ionic-md-arrow-dropup" d="M9.5,13.663l4,4,5-4Z" transform="translate(671.5 271.337)" fill="#185a69"/>
      <path id="Icon_ionic-md-arrow-dropup-3" data-name="Icon ionic-md-arrow-dropup" d="M9,13.5l4.651,4.651L18.3,13.5Z" transform="translate(669.326 336.314) rotate(-90)" fill="#185a69"/>
      <rect id="Rectangle_532" data-name="Rectangle 532" width="47" height="2" transform="translate(695 273)" fill="#215a9c"/>
      <rect id="Rectangle_533" data-name="Rectangle 533" width="45" height="2" transform="translate(695 286)" fill="#215a9c"/>
      <rect id="Rectangle_537" data-name="Rectangle 537" width="47" height="2" transform="translate(695 322)" fill="#215a9c"/>
      <rect id="Rectangle_534" data-name="Rectangle 534" width="40" height="2" transform="translate(695 294)" fill="#6a6a6a"/>
      <rect id="Rectangle_535" data-name="Rectangle 535" width="45" height="2" transform="translate(695 302)" fill="#6a6a6a"/>
      <rect id="Rectangle_536" data-name="Rectangle 536" width="33" height="2" transform="translate(695 310)" fill="#6a6a6a"/>
    </g>
  </g>
</svg>
