<svg xmlns="http://www.w3.org/2000/svg" xmlns:xlink="http://www.w3.org/1999/xlink" width="84" height="84" viewBox="0 0 84 84">
  <defs>
    <filter id="Rectangle_97" x="2.5" y="4.5" width="79" height="38" filterUnits="userSpaceOnUse">
      <feOffset input="SourceAlpha"/>
      <feGaussianBlur stdDeviation="2.5" result="blur"/>
      <feFlood flood-color="#aac7e5"/>
      <feComposite operator="in" in2="blur"/>
      <feComposite in="SourceGraphic"/>
    </filter>
    <filter id="Rectangle_97-2" x="2.5" y="35.5" width="79" height="38" filterUnits="userSpaceOnUse">
      <feOffset input="SourceAlpha"/>
      <feGaussianBlur stdDeviation="2.5" result="blur-2"/>
      <feFlood flood-color="#aac7e5"/>
      <feComposite operator="in" in2="blur-2"/>
      <feComposite in="SourceGraphic"/>
    </filter>
    <clipPath id="clip-path">
      <rect id="Rectangle_539" data-name="Rectangle 539" width="84" height="84" rx="3" transform="translate(783 256)" fill="none" stroke="#215a9c" stroke-width="4"/>
    </clipPath>
    <filter id="Rectangle_97-3" x="2.5" y="66.5" width="79" height="30" filterUnits="userSpaceOnUse">
      <feOffset input="SourceAlpha"/>
      <feGaussianBlur stdDeviation="2.5" result="blur-3"/>
      <feFlood flood-color="#aac7e5"/>
      <feComposite operator="in" in2="blur-3"/>
      <feComposite in="SourceGraphic"/>
    </filter>
    <clipPath id="clip-feed">
      <rect width="84" height="84"/>
    </clipPath>
  </defs>
  <g id="feed" clip-path="url(#clip-feed)">
    <rect width="84" height="84" fill="#fff"/>
    <g id="Group_284" data-name="Group 284" transform="translate(-783 -256)">
      <path id="Union_20" data-name="Union 20" d="M3,14.333H81a3,3,0,0,1,3,3v78a3,3,0,0,1-3,3H3a3,3,0,0,1-3-3v-78A3,3,0,0,1,3,14.333Z" transform="translate(783 241.667)" fill="#d0e0f0"/>
      <g id="Group_4" data-name="Group 4" transform="translate(-546 196)">
        <g transform="matrix(1, 0, 0, 1, 1329, 60)" filter="url(#Rectangle_97)">
          <rect id="Rectangle_97-4" data-name="Rectangle 97" width="64" height="23" rx="3" transform="translate(10 12)" fill="#fff"/>
        </g>
        <g id="Rectangle_98" data-name="Rectangle 98" transform="translate(1345 78)" fill="#6a6a6a" stroke="#707070" stroke-width="1">
          <rect width="26" height="2" stroke="none"/>
          <rect x="0.5" y="0.5" width="25" height="1" fill="none"/>
        </g>
        <g id="Rectangle_102" data-name="Rectangle 102" transform="translate(1371 87)" fill="none" stroke="#215a9c" stroke-width="1">
          <rect width="26" height="2" stroke="none"/>
          <rect x="0.5" y="0.5" width="25" height="1" fill="none"/>
        </g>
        <g id="Rectangle_100" data-name="Rectangle 100" transform="translate(1345 84)" fill="#6a6a6a" stroke="#707070" stroke-width="1">
          <rect width="14" height="2" stroke="none"/>
          <rect x="0.5" y="0.5" width="13" height="1" fill="none"/>
        </g>
      </g>
      <g id="Group_4-2" data-name="Group 4" transform="translate(-546 227)">
        <g transform="matrix(1, 0, 0, 1, 1329, 29)" filter="url(#Rectangle_97-2)">
          <rect id="Rectangle_97-5" data-name="Rectangle 97" width="64" height="23" rx="3" transform="translate(10 43)" fill="#fff"/>
        </g>
        <g id="Rectangle_98-2" data-name="Rectangle 98" transform="translate(1345 78)" fill="#6a6a6a" stroke="#707070" stroke-width="1">
          <rect width="26" height="2" stroke="none"/>
          <rect x="0.5" y="0.5" width="25" height="1" fill="none"/>
        </g>
        <g id="Rectangle_102-2" data-name="Rectangle 102" transform="translate(1371 87)" fill="none" stroke="#215a9c" stroke-width="1">
          <rect width="26" height="2" stroke="none"/>
          <rect x="0.5" y="0.5" width="25" height="1" fill="none"/>
        </g>
        <g id="Rectangle_100-2" data-name="Rectangle 100" transform="translate(1345 84)" fill="#6a6a6a" stroke="#707070" stroke-width="1">
          <rect width="14" height="2" stroke="none"/>
          <rect x="0.5" y="0.5" width="13" height="1" fill="none"/>
        </g>
      </g>
      <g id="Mask_Group_3" data-name="Mask Group 3" clip-path="url(#clip-path)">
        <g id="Group_4-3" data-name="Group 4" transform="translate(-546 258)">
          <g transform="matrix(1, 0, 0, 1, 1329, -2)" filter="url(#Rectangle_97-3)">
            <rect id="Rectangle_97-6" data-name="Rectangle 97" width="64" height="15" rx="3" transform="translate(10 74)" fill="#fff"/>
          </g>
        </g>
      </g>
    </g>
  </g>
</svg>
