<svg height="84" viewBox="0 0 84 84" width="84" xmlns="http://www.w3.org/2000/svg"><path d="m2 2h80v80h-80z" fill="#fff" stroke="#185a69" stroke-width="4"/><g fill="#185a69"><path d="m13 23h59v2h-59z"/><path d="m13 38h59v2h-59z"/><path d="m13 53h59v2h-59z"/><path d="m13 68h59v2h-59z"/></g><path d="m13 31h15v2h-15z" fill="#6a6a6a"/><path d="m13 16h11v2h-11z" fill="#185a69"/><path d="m37 31h13v2h-13z" fill="#6a6a6a"/><path d="m37 16h13v2h-13z" fill="#185a69"/><path d="m59 16h13v2h-13z" fill="#185a69"/><path d="m13 46h18v2h-18z" fill="#6a6a6a"/><path d="m37 46h11v2h-11z" fill="#6a6a6a"/><path d="m13 60h15v2h-15z" fill="#6a6a6a"/><path d="m37 60h13v2h-13z" fill="#6a6a6a"/><g fill="#fff" stroke="#185a69" stroke-width="2"><path d="m60 28h12v7h-12z" stroke="none"/><path d="m61 29h10v5h-10z" fill="none"/></g><g fill="#fff" stroke="#185a69" stroke-width="2"><path d="m60 43h12v7h-12z" stroke="none"/><path d="m61 44h10v5h-10z" fill="none"/></g><g fill="#fff" stroke="#185a69" stroke-width="2"><path d="m60 58h12v7h-12z" stroke="none"/><path d="m61 59h10v5h-10z" fill="none"/></g></svg>