<svg xmlns="http://www.w3.org/2000/svg" xmlns:xlink="http://www.w3.org/1999/xlink" width="84" height="84" viewBox="0 0 84 84">
  <defs>
    <filter id="Rectangle_543" x="-1.5" y="-1.5" width="87" height="87" filterUnits="userSpaceOnUse">
      <feOffset input="SourceAlpha"/>
      <feGaussianBlur stdDeviation="2.5" result="blur"/>
      <feFlood flood-color="#aac7e5"/>
      <feComposite operator="in" in2="blur"/>
      <feComposite in="SourceGraphic"/>
    </filter>
    <clipPath id="clip-link">
      <rect width="84" height="84"/>
    </clipPath>
  </defs>
  <g id="link" clip-path="url(#clip-link)">
    <rect width="84" height="84" fill="#fff"/>
    <g id="Group_287" data-name="Group 287" transform="translate(-554 -360)">
      <path id="Union_22" data-name="Union 22" d="M3,14.333H81a3,3,0,0,1,3,3v78a3,3,0,0,1-3,3H3a3,3,0,0,1-3-3v-78A3,3,0,0,1,3,14.333Z" transform="translate(554 345.667)" fill="#d0e0f0"/>
      <g transform="matrix(1, 0, 0, 1, 554, 360)" filter="url(#Rectangle_543)">
        <rect id="Rectangle_543-2" data-name="Rectangle 543" width="72" height="72" rx="3" transform="translate(6 6)" fill="#fff"/>
      </g>
      <rect id="Rectangle_544" data-name="Rectangle 544" width="20" height="2" transform="translate(586 401)" fill="#215a9c"/>
      <path id="Icon_awesome-mouse-pointer" data-name="Icon awesome-mouse-pointer" d="M11.214,12.214H7.277L9.349,17.26a.689.689,0,0,1-.35.891l-1.824.8a.656.656,0,0,1-.866-.36L4.34,13.793,1.124,17.1A.657.657,0,0,1,0,16.624V.679A.657.657,0,0,1,1.124.2L11.678,11.058A.68.68,0,0,1,11.214,12.214Z" transform="translate(609 402)" fill="#185a69"/>
    </g>
  </g>
</svg>
