<svg xmlns="http://www.w3.org/2000/svg" xmlns:xlink="http://www.w3.org/1999/xlink" width="84" height="84" viewBox="0 0 84 84">
  <defs>
    <filter id="Rectangle_546" x="6.5" y="-1.5" width="72" height="86" filterUnits="userSpaceOnUse">
      <feOffset input="SourceAlpha"/>
      <feGaussianBlur stdDeviation="2.5" result="blur"/>
      <feFlood flood-color="#aac7e5"/>
      <feComposite operator="in" in2="blur"/>
      <feComposite in="SourceGraphic"/>
    </filter>
    <clipPath id="clip-listbox">
      <rect width="84" height="84"/>
    </clipPath>
  </defs>
  <g id="listbox" clip-path="url(#clip-listbox)">
    <rect width="84" height="84" fill="#fff"/>
    <g id="Group_301" data-name="Group 301" transform="translate(-667 -358)">
      <path id="Union_23" data-name="Union 23" d="M3,14.333H81a3,3,0,0,1,3,3v78a3,3,0,0,1-3,3H3a3,3,0,0,1-3-3v-78A3,3,0,0,1,3,14.333Z" transform="translate(667 343.667)" fill="#d0e0f0"/>
      <g transform="matrix(1, 0, 0, 1, 667, 358)" filter="url(#Rectangle_546)">
        <rect id="Rectangle_546-2" data-name="Rectangle 546" width="57" height="71" rx="3" transform="translate(14 6)" fill="#fff"/>
      </g>
      <rect id="Rectangle_548" data-name="Rectangle 548" width="57" height="12" transform="translate(681 394)" fill="#e1ecf7"/>
      <rect id="Rectangle_550" data-name="Rectangle 550" width="26" height="2" transform="translate(689 399)" fill="#215a9c"/>
      <rect id="Rectangle_553" data-name="Rectangle 553" width="26" height="2" transform="translate(689 386)" fill="#6a6a6a"/>
      <rect id="Rectangle_555" data-name="Rectangle 555" width="21" height="2" transform="translate(689 412)" fill="#6a6a6a"/>
      <rect id="Rectangle_556" data-name="Rectangle 556" width="21" height="2" transform="translate(689 425)" fill="#6a6a6a"/>
      <rect id="Rectangle_554" data-name="Rectangle 554" width="21" height="2" transform="translate(689 373)" fill="#6a6a6a"/>
    </g>
  </g>
</svg>
