<svg height="84" viewBox="0 0 84 84" width="84" xmlns="http://www.w3.org/2000/svg"><path d="m2 2h80v80h-80z" fill="#eaeaea" stroke="#185a69" stroke-width="4"/><rect fill="#fff" height="16" rx="1" stroke="#185a69" stroke-width="4" width="64" x="10" y="10"/><path d="m16 17h13v2h-13z" fill="#6a6a6a"/><path d="m45 17h13v2h-13z" fill="#6a6a6a"/><path d="m9 13.5 3 3 3-3z" fill="#185a69" transform="translate(22.349 3.174)"/><path d="m9 13.5 3 3 3-3z" fill="#185a69" transform="translate(51.349 3.174)"/><rect fill="#fff" height="43" rx="1" stroke="#185a69" stroke-width="4" width="39" x="16" y="26"/><g fill="#6a6a6a"><path d="m22 34h18v2h-18z"/><path d="m22 50h24v2h-24z"/><path d="m22 42h26v2h-26z"/><path d="m22 58h23v2h-23z"/></g></svg>