<svg height="84" viewBox="0 0 84 84" width="84" xmlns="http://www.w3.org/2000/svg"><path d="m2 2h80v80h-80z" fill="#eaeaea" stroke="#185a69" stroke-width="4"/><rect fill="#fff" height="35" rx="1" stroke="#185a69" stroke-width="4" width="32" x="16" y="31.5"/><g fill="#6a6a6a"><path d="m22 39.5h18v2h-18z"/><path d="m22 55.5h17v2h-17z"/><path d="m22 47.5h19v2h-19z"/></g><rect fill="#fff" height="14" rx="1" stroke="#185a69" stroke-width="4" width="45.125" x="16" y="18"/><path d="m29.75 24h19v2h-19z" fill="#6a6a6a"/><path d="m11.214 12.214h-3.937l2.072 5.046a.689.689 0 0 1 -.35.891l-1.824.8a.656.656 0 0 1 -.866-.36l-1.969-4.798-3.216 3.307a.657.657 0 0 1 -1.124-.476v-15.945a.657.657 0 0 1 1.124-.479l10.554 10.858a.68.68 0 0 1 -.464 1.156z" fill="#185a69" transform="translate(54.401 24.5)"/></svg>