<svg xmlns="http://www.w3.org/2000/svg" xmlns:xlink="http://www.w3.org/1999/xlink" width="84" height="84" viewBox="0 0 84 84">
  <defs>
    <filter id="Rectangle_560" x="2.5" y="14.5" width="59" height="67" filterUnits="userSpaceOnUse">
      <feOffset input="SourceAlpha"/>
      <feGaussianBlur stdDeviation="2.5" result="blur"/>
      <feFlood flood-color="#aac7e5"/>
      <feComposite operator="in" in2="blur"/>
      <feComposite in="SourceGraphic"/>
    </filter>
    <filter id="Rectangle_558" x="-0.5" y="4.5" width="85" height="30" filterUnits="userSpaceOnUse">
      <feOffset input="SourceAlpha"/>
      <feGaussianBlur stdDeviation="2.5" result="blur-2"/>
      <feFlood flood-color="#aac7e5"/>
      <feComposite operator="in" in2="blur-2"/>
      <feComposite in="SourceGraphic"/>
    </filter>
    <clipPath id="clip-menu">
      <rect width="84" height="84"/>
    </clipPath>
  </defs>
  <g id="menu" clip-path="url(#clip-menu)">
    <rect width="84" height="84" fill="#fff"/>
    <g id="Group_302" data-name="Group 302" transform="translate(-783 -357)">
      <path id="Union_24" data-name="Union 24" d="M3,14.333H81a3,3,0,0,1,3,3v78a3,3,0,0,1-3,3H3a3,3,0,0,1-3-3v-78A3,3,0,0,1,3,14.333Z" transform="translate(783 342.667)" fill="#d0e0f0"/>
      <g transform="matrix(1, 0, 0, 1, 783, 357)" filter="url(#Rectangle_560)">
        <rect id="Rectangle_560-2" data-name="Rectangle 560" width="44" height="52" rx="3" transform="translate(10 22)" fill="#fff"/>
      </g>
      <g transform="matrix(1, 0, 0, 1, 783, 357)" filter="url(#Rectangle_558)">
        <rect id="Rectangle_558-2" data-name="Rectangle 558" width="70" height="15" rx="3" transform="translate(7 12)" fill="#185a69"/>
      </g>
      <rect id="Rectangle_562" data-name="Rectangle 562" width="26" height="2" transform="translate(801 411)" fill="#6a6a6a"/>
      <rect id="Rectangle_563" data-name="Rectangle 563" width="26" height="2" transform="translate(801 401)" fill="#6a6a6a"/>
      <rect id="Rectangle_564" data-name="Rectangle 564" width="21" height="2" transform="translate(801 421)" fill="#6a6a6a"/>
      <rect id="Rectangle_565" data-name="Rectangle 565" width="21" height="2" transform="translate(801 391)" fill="#6a6a6a"/>
      <rect id="Rectangle_566" data-name="Rectangle 566" width="13" height="2" transform="translate(799 376)" fill="#fff"/>
      <rect id="Rectangle_567" data-name="Rectangle 567" width="13" height="2" transform="translate(828 376)" fill="#fff"/>
      <path id="Icon_ionic-md-arrow-dropup" data-name="Icon ionic-md-arrow-dropup" d="M9,13.5l3,3,3-3Z" transform="translate(805.349 361.5)" fill="#fff"/>
      <path id="Icon_ionic-md-arrow-dropup-2" data-name="Icon ionic-md-arrow-dropup" d="M9,13.5l3,3,3-3Z" transform="translate(834.349 361.5)" fill="#fff"/>
    </g>
  </g>
</svg>
