<svg xmlns="http://www.w3.org/2000/svg" xmlns:xlink="http://www.w3.org/1999/xlink" width="84" height="84" viewBox="0 0 84 84">
  <defs>
    <filter id="Rectangle_570" x="4.5" y="14.5" width="57" height="67" filterUnits="userSpaceOnUse">
      <feOffset input="SourceAlpha"/>
      <feGaussianBlur stdDeviation="2.5" result="blur"/>
      <feFlood flood-color="#aac7e5"/>
      <feComposite operator="in" in2="blur"/>
      <feComposite in="SourceGraphic"/>
    </filter>
    <filter id="Rectangle_569" x="4.5" y="4.5" width="68" height="30" filterUnits="userSpaceOnUse">
      <feOffset input="SourceAlpha"/>
      <feGaussianBlur stdDeviation="2.5" result="blur-2"/>
      <feFlood flood-color="#aac7e5"/>
      <feComposite operator="in" in2="blur-2"/>
      <feComposite in="SourceGraphic"/>
    </filter>
    <clipPath id="clip-menubutton">
      <rect width="84" height="84"/>
    </clipPath>
  </defs>
  <g id="menubutton" clip-path="url(#clip-menubutton)">
    <rect width="84" height="84" fill="#fff"/>
    <g id="Group_303" data-name="Group 303" transform="translate(-890 -357)">
      <path id="Union_25" data-name="Union 25" d="M3,14.333H81a3,3,0,0,1,3,3v78a3,3,0,0,1-3,3H3a3,3,0,0,1-3-3v-78A3,3,0,0,1,3,14.333Z" transform="translate(890 342.667)" fill="#d0e0f0"/>
      <g transform="matrix(1, 0, 0, 1, 890, 357)" filter="url(#Rectangle_570)">
        <rect id="Rectangle_570-2" data-name="Rectangle 570" width="42" height="52" rx="3" transform="translate(12 22)" fill="#fff"/>
      </g>
      <g transform="matrix(1, 0, 0, 1, 890, 357)" filter="url(#Rectangle_569)">
        <path id="Rectangle_569-2" data-name="Rectangle 569" d="M3,0H50a3,3,0,0,1,3,3v9a3,3,0,0,1-3,3H0a0,0,0,0,1,0,0V3A3,3,0,0,1,3,0Z" transform="translate(12 12)" fill="#185a69"/>
      </g>
      <rect id="Rectangle_572" data-name="Rectangle 572" width="26" height="2" transform="translate(910 411)" fill="#6a6a6a"/>
      <rect id="Rectangle_573" data-name="Rectangle 573" width="26" height="2" transform="translate(910 401)" fill="#6a6a6a"/>
      <rect id="Rectangle_574" data-name="Rectangle 574" width="21" height="2" transform="translate(910 421)" fill="#6a6a6a"/>
      <rect id="Rectangle_575" data-name="Rectangle 575" width="21" height="2" transform="translate(910 391)" fill="#6a6a6a"/>
      <rect id="Rectangle_576" data-name="Rectangle 576" width="28.094" height="2" transform="translate(913.811 376)" fill="#fff"/>
      <path id="Icon_awesome-mouse-pointer" data-name="Icon awesome-mouse-pointer" d="M11.214,12.214H7.277L9.349,17.26a.689.689,0,0,1-.35.891l-1.824.8a.656.656,0,0,1-.866-.36L4.34,13.793,1.124,17.1A.657.657,0,0,1,0,16.624V.679A.657.657,0,0,1,1.124.2L11.678,11.058A.68.68,0,0,1,11.214,12.214Z" transform="translate(951.125 386)" fill="#215a9c"/>
    </g>
  </g>
</svg>
