<svg xmlns="http://www.w3.org/2000/svg" xmlns:xlink="http://www.w3.org/1999/xlink" width="84" height="84" viewBox="0 0 84 84">
  <defs>
    <filter id="Rectangle_578" x="4.5" y="26.5" width="78" height="31" filterUnits="userSpaceOnUse">
      <feOffset input="SourceAlpha"/>
      <feGaussianBlur stdDeviation="2.5" result="blur"/>
      <feFlood flood-color="#aac7e5"/>
      <feComposite operator="in" in2="blur"/>
      <feComposite in="SourceGraphic"/>
    </filter>
    <clipPath id="clip-path">
      <rect id="Rectangle_585" data-name="Rectangle 585" width="40" height="8" transform="translate(508 486)" fill="#185a69"/>
    </clipPath>
    <clipPath id="clip-meter">
      <rect width="84" height="84"/>
    </clipPath>
  </defs>
  <g id="meter" clip-path="url(#clip-meter)">
    <rect width="84" height="84" fill="#fff"/>
    <g id="Group_288" data-name="Group 288" transform="translate(-554 -460)">
      <path id="Union_26" data-name="Union 26" d="M3,14.333H81a3,3,0,0,1,3,3v78a3,3,0,0,1-3,3H3a3,3,0,0,1-3-3v-78A3,3,0,0,1,3,14.333Z" transform="translate(554 445.667)" fill="#d0e0f0"/>
      <g transform="matrix(1, 0, 0, 1, 554, 460)" filter="url(#Rectangle_578)">
        <rect id="Rectangle_578-2" data-name="Rectangle 578" width="63" height="16" rx="3" transform="translate(12 34)" fill="#fff"/>
      </g>
      <g id="Group_268" data-name="Group 268" transform="translate(62 12)">
        <rect id="Rectangle_581" data-name="Rectangle 581" width="40" height="8" transform="translate(508 486)" fill="#215a9c"/>
        <g id="Mask_Group_4" data-name="Mask Group 4" clip-path="url(#clip-path)">
          <g id="Group_268-2" data-name="Group 268">
            <rect id="Rectangle_580" data-name="Rectangle 580" width="6" height="23" transform="translate(516.5 479.081) rotate(30)" fill="#aac7e5"/>
            <rect id="Rectangle_584" data-name="Rectangle 584" width="6" height="23" transform="translate(540.5 479.081) rotate(30)" fill="#aac7e5"/>
            <rect id="Rectangle_582" data-name="Rectangle 582" width="6" height="23" transform="translate(528.5 479.081) rotate(30)" fill="#aac7e5"/>
            <rect id="Rectangle_583" data-name="Rectangle 583" width="6" height="23" transform="translate(551.5 479.081) rotate(30)" fill="#aac7e5"/>
          </g>
        </g>
      </g>
    </g>
  </g>
</svg>
