<svg xmlns="http://www.w3.org/2000/svg" xmlns:xlink="http://www.w3.org/1999/xlink" width="84" height="84" viewBox="0 0 84 84">
  <defs>
    <filter id="Rectangle_587" x="-1.5" y="-1.5" width="87" height="87" filterUnits="userSpaceOnUse">
      <feOffset input="SourceAlpha"/>
      <feGaussianBlur stdDeviation="2.5" result="blur"/>
      <feFlood flood-color="#aac7e5"/>
      <feComposite operator="in" in2="blur"/>
      <feComposite in="SourceGraphic"/>
    </filter>
    <clipPath id="clip-radiobutton">
      <rect width="84" height="84"/>
    </clipPath>
  </defs>
  <g id="radiobutton" clip-path="url(#clip-radiobutton)">
    <rect width="84" height="84" fill="#fff"/>
    <g id="Group_304" data-name="Group 304" transform="translate(-670 -462)">
      <path id="Union_27" data-name="Union 27" d="M3,14.333H81a3,3,0,0,1,3,3v78a3,3,0,0,1-3,3H3a3,3,0,0,1-3-3v-78A3,3,0,0,1,3,14.333Z" transform="translate(670 447.667)" fill="#d0e0f0"/>
      <g transform="matrix(1, 0, 0, 1, 670, 462)" filter="url(#Rectangle_587)">
        <rect id="Rectangle_587-2" data-name="Rectangle 587" width="72" height="72" rx="3" transform="translate(6 6)" fill="#fff"/>
      </g>
      <rect id="Rectangle_588" data-name="Rectangle 588" width="28" height="2" transform="translate(705 483)" fill="#6a6a6a"/>
      <rect id="Rectangle_590" data-name="Rectangle 590" width="28" height="2" transform="translate(705 523)" fill="#6a6a6a"/>
      <rect id="Rectangle_592" data-name="Rectangle 592" width="60" height="20" rx="1" transform="translate(682 494)" fill="#e1ecf7"/>
      <g id="Rectangle_591" data-name="Rectangle 591" transform="translate(687 478)" fill="none" stroke="#aac7e5" stroke-width="3">
        <rect width="12" height="12" rx="6" stroke="none"/>
        <rect x="1.5" y="1.5" width="9" height="9" rx="4.5" fill="none"/>
      </g>
      <g id="Group_269" data-name="Group 269" transform="translate(-112.5 309.5)">
        <g id="Rectangle_44" data-name="Rectangle 44" transform="translate(799.5 188.5)" fill="#fff" stroke="#215a9c" stroke-width="4">
          <rect width="12" height="12" rx="6" stroke="none"/>
          <rect x="2" y="2" width="8" height="8" rx="4" fill="none"/>
        </g>
      </g>
      <g id="Group_270" data-name="Group 270" transform="translate(-209 421.99)">
        <g id="Rectangle_44-2" data-name="Rectangle 44" transform="translate(896 97.01)" fill="none" stroke="#aac7e5" stroke-width="3">
          <rect width="12" height="12" rx="6" stroke="none"/>
          <rect x="1.5" y="1.5" width="9" height="9" rx="4.5" fill="none"/>
        </g>
      </g>
      <rect id="Rectangle_589" data-name="Rectangle 589" width="28" height="2" transform="translate(705 503)" fill="#215a9c"/>
    </g>
  </g>
</svg>
