<svg height="84" viewBox="0 0 84 84" width="84" xmlns="http://www.w3.org/2000/svg"><path d="m2 2h80v80h-80z" fill="#fff" stroke="#185a69" stroke-width="4"/><path d="m16 24h56v4h-56z" fill="#185a69"/><path d="m16 56h56v4h-56z" fill="#185a69"/><g fill="#fff" stroke="#185a69" stroke-width="2"><path d="m0 7.64 7.64-7.64 7.64 7.64z" transform="matrix(0 1 -1 0 34.349 18.36)"/><path d="m0 7.64 7.64-7.64 7.64 7.64z" transform="matrix(0 1 -1 0 30.529 50.5)"/><path d="m0 7.64 7.64-7.64 7.64 7.64z" transform="matrix(0 -1 1 0 59.529 33.64)"/><path d="m0 7.64 7.64-7.64 7.64 7.64z" transform="matrix(0 -1 1 0 44 65.78)"/></g></svg>