<svg xmlns="http://www.w3.org/2000/svg" xmlns:xlink="http://www.w3.org/1999/xlink" width="84" height="84" viewBox="0 0 84 84">
  <defs>
    <filter id="Rectangle_596" x="-1.5" y="-1.5" width="87" height="87" filterUnits="userSpaceOnUse">
      <feOffset input="SourceAlpha"/>
      <feGaussianBlur stdDeviation="2.5" result="blur"/>
      <feFlood flood-color="#aac7e5"/>
      <feComposite operator="in" in2="blur"/>
      <feComposite in="SourceGraphic"/>
    </filter>
    <clipPath id="clip-slidertwothumb">
      <rect width="84" height="84"/>
    </clipPath>
  </defs>
  <g id="slidertwothumb" clip-path="url(#clip-slidertwothumb)">
    <rect width="84" height="84" fill="#fff"/>
    <g id="Group_294" data-name="Group 294" transform="translate(-890 -462)">
      <path id="Union_29" data-name="Union 29" d="M3,14.333H81a3,3,0,0,1,3,3v78a3,3,0,0,1-3,3H3a3,3,0,0,1-3-3v-78A3,3,0,0,1,3,14.333Z" transform="translate(890 447.667)" fill="#d0e0f0"/>
      <g transform="matrix(1, 0, 0, 1, 890, 462)" filter="url(#Rectangle_596)">
        <rect id="Rectangle_596-2" data-name="Rectangle 596" width="72" height="72" rx="3" transform="translate(6 6)" fill="#fff"/>
      </g>
      <rect id="Rectangle_597" data-name="Rectangle 597" width="56" height="2" transform="translate(904 487)" fill="#aac7e5"/>
      <rect id="Rectangle_599" data-name="Rectangle 599" width="56" height="2" transform="translate(904 519)" fill="#aac7e5"/>
      <path id="Icon_ionic-md-arrow-dropup" data-name="Icon ionic-md-arrow-dropup" d="M0,0,6.322,7.64,12.644,0Z" transform="translate(946.64 482) rotate(90)" fill="#215a9c"/>
      <path id="Icon_ionic-md-arrow-dropup-2" data-name="Icon ionic-md-arrow-dropup" d="M0,0,6.322,7.64,12.644,0Z" transform="translate(953.897 513.356) rotate(90)" fill="#215a9c"/>
      <path id="Icon_ionic-md-arrow-dropup-3" data-name="Icon ionic-md-arrow-dropup" d="M0,7.64,6.322,0l6.322,7.64Z" transform="translate(918.14 482) rotate(90)" fill="#215a9c"/>
      <path id="Icon_ionic-md-arrow-dropup-4" data-name="Icon ionic-md-arrow-dropup" d="M0,7.64,6.322,0l6.322,7.64Z" transform="translate(923 513.356) rotate(90)" fill="#215a9c"/>
    </g>
  </g>
</svg>
