<svg xmlns="http://www.w3.org/2000/svg" xmlns:xlink="http://www.w3.org/1999/xlink" width="84" height="84" viewBox="0 0 84 84">
  <defs>
    <filter id="Rectangle_594" x="-1.5" y="-1.5" width="87" height="87" filterUnits="userSpaceOnUse">
      <feOffset input="SourceAlpha"/>
      <feGaussianBlur stdDeviation="2.5" result="blur"/>
      <feFlood flood-color="#aac7e5"/>
      <feComposite operator="in" in2="blur"/>
      <feComposite in="SourceGraphic"/>
    </filter>
    <clipPath id="clip-slider">
      <rect width="84" height="84"/>
    </clipPath>
  </defs>
  <g id="slider" clip-path="url(#clip-slider)">
    <rect width="84" height="84" fill="#fff"/>
    <g id="Group_293" data-name="Group 293" transform="translate(-782 -462)">
      <path id="Union_28" data-name="Union 28" d="M3,14.333H81a3,3,0,0,1,3,3v78a3,3,0,0,1-3,3H3a3,3,0,0,1-3-3v-78A3,3,0,0,1,3,14.333Z" transform="translate(782 447.667)" fill="#d0e0f0"/>
      <g transform="matrix(1, 0, 0, 1, 782, 462)" filter="url(#Rectangle_594)">
        <rect id="Rectangle_594-2" data-name="Rectangle 594" width="72" height="72" rx="3" transform="translate(6 6)" fill="#fff"/>
      </g>
      <rect id="Rectangle_149" data-name="Rectangle 149" width="56" height="2" transform="translate(796 481)" fill="#aac7e5"/>
      <rect id="Rectangle_150" data-name="Rectangle 150" width="4" height="14" rx="1" transform="translate(807 475)" fill="#215a9c"/>
      <rect id="Rectangle_149-2" data-name="Rectangle 149" width="56" height="2" transform="translate(796 503)" fill="#aac7e5"/>
      <rect id="Rectangle_150-2" data-name="Rectangle 150" width="4" height="14" rx="1" transform="translate(807 497)" fill="#215a9c"/>
      <rect id="Rectangle_149-3" data-name="Rectangle 149" width="56" height="2" transform="translate(796 525)" fill="#aac7e5"/>
      <rect id="Rectangle_150-3" data-name="Rectangle 150" width="4" height="14" rx="1" transform="translate(807 519)" fill="#215a9c"/>
    </g>
  </g>
</svg>
