<svg xmlns="http://www.w3.org/2000/svg" xmlns:xlink="http://www.w3.org/1999/xlink" width="84" height="84" viewBox="0 0 84 84">
  <defs>
    <filter id="Rectangle_627" x="-1.5" y="-1.5" width="87" height="87" filterUnits="userSpaceOnUse">
      <feOffset input="SourceAlpha"/>
      <feGaussianBlur stdDeviation="2.5" result="blur"/>
      <feFlood flood-color="#aac7e5"/>
      <feComposite operator="in" in2="blur"/>
      <feComposite in="SourceGraphic"/>
    </filter>
    <clipPath id="clip-spinbutton">
      <rect width="84" height="84"/>
    </clipPath>
  </defs>
  <g id="spinbutton" clip-path="url(#clip-spinbutton)">
    <rect width="84" height="84" fill="#fff"/>
    <g id="Group_289" data-name="Group 289" transform="translate(-554 -571)">
      <path id="Union_30" data-name="Union 30" d="M3,14.333H81a3,3,0,0,1,3,3v78a3,3,0,0,1-3,3H3a3,3,0,0,1-3-3v-78A3,3,0,0,1,3,14.333Z" transform="translate(554 556.667)" fill="#d0e0f0"/>
      <g transform="matrix(1, 0, 0, 1, 554, 571)" filter="url(#Rectangle_627)">
        <rect id="Rectangle_627-2" data-name="Rectangle 627" width="72" height="72" rx="3" transform="translate(6 6)" fill="#fff"/>
      </g>
      <g id="Group_30" data-name="Group 30" transform="translate(161.5 111)">
        <rect id="Rectangle_153" data-name="Rectangle 153" width="21" height="18" rx="1" transform="translate(424.5 480)" fill="#185a69"/>
        <path id="Icon_ionic-md-arrow-dropup" data-name="Icon ionic-md-arrow-dropup" d="M9,13.5l4.651,4.651L18.3,13.5Z" transform="translate(448.303 504.151) rotate(180)" fill="#fff"/>
      </g>
      <rect id="Rectangle_153-2" data-name="Rectangle 153" width="21" height="18" rx="1" transform="translate(607 637) rotate(180)" fill="#185a69"/>
      <path id="Icon_ionic-md-arrow-dropup-2" data-name="Icon ionic-md-arrow-dropup" d="M9,13.5l4.651,4.651L18.3,13.5Z" transform="translate(583 612.349)" fill="#fff"/>
    </g>
  </g>
</svg>
