<svg xmlns="http://www.w3.org/2000/svg" xmlns:xlink="http://www.w3.org/1999/xlink" width="84" height="84" viewBox="0 0 84 84">
  <defs>
    <filter id="Rectangle_647" x="16.5" y="24.5" width="51" height="36" filterUnits="userSpaceOnUse">
      <feOffset input="SourceAlpha"/>
      <feGaussianBlur stdDeviation="2.5" result="blur"/>
      <feFlood flood-color="#aac7e5"/>
      <feComposite operator="in" in2="blur"/>
      <feComposite in="SourceGraphic"/>
    </filter>
    <clipPath id="clip-switch">
      <rect width="84" height="84"/>
    </clipPath>
  </defs>
  <g id="switch" clip-path="url(#clip-switch)">
    <rect width="84" height="84" fill="#fff"/>
    <g id="Group_292" data-name="Group 292" transform="translate(-669 -786)">
      <path id="Union_40" data-name="Union 40" d="M3,14.333H81a3,3,0,0,1,3,3v78a3,3,0,0,1-3,3H3a3,3,0,0,1-3-3v-78A3,3,0,0,1,3,14.333Z" transform="translate(669 771.667)" fill="#d0e0f0"/>
      <g id="Group_274" data-name="Group 274" transform="translate(-1)">
        <g transform="matrix(1, 0, 0, 1, 670, 786)" filter="url(#Rectangle_647)">
          <rect id="Rectangle_647-2" data-name="Rectangle 647" width="36" height="21" rx="10.5" transform="translate(24 32)" fill="#fff"/>
        </g>
        <g id="Group_272" data-name="Group 272" transform="translate(697 821)">
          <circle id="Ellipse_1" data-name="Ellipse 1" cx="7.5" cy="7.5" r="7.5" fill="#215a9c"/>
        </g>
      </g>
    </g>
  </g>
</svg>
