<svg height="84" viewBox="0 0 84 84" width="84" xmlns="http://www.w3.org/2000/svg"><g transform="translate(-53 -573)"><path d="m55 575h80v80h-80z" fill="#eaeaea" stroke="#185a69" stroke-width="4"/><g fill="#fff" stroke="#185a69" stroke-width="4"><rect height="45" rx="1" stroke="none" width="58" x="66" y="592"/><rect fill="none" height="49" rx="3" width="62" x="64" y="590"/></g><path d="m66 604h58v10h-58z" fill="#eaeaea"/><path d="m66 627h58v10h-58z" fill="#eaeaea"/><g fill="#185a69"><path d="m66 603h58v2h-58z"/><path d="m66 614h58v2h-58z"/><path d="m66 625h58v2h-58z"/><path d="m0 0h45v2h-45z" transform="matrix(0 -1 1 0 83 637)"/><path d="m0 0h45v2h-45z" transform="matrix(0 -1 1 0 105 637)"/></g></g></svg>