<svg xmlns="http://www.w3.org/2000/svg" xmlns:xlink="http://www.w3.org/1999/xlink" width="84" height="84" viewBox="0 0 84 84">
  <defs>
    <filter id="Union_32" x="-0.5" y="8.5" width="85" height="67" filterUnits="userSpaceOnUse">
      <feOffset input="SourceAlpha"/>
      <feGaussianBlur stdDeviation="2.5" result="blur"/>
      <feFlood flood-color="#aac7e5"/>
      <feComposite operator="in" in2="blur"/>
      <feComposite in="SourceGraphic"/>
    </filter>
    <clipPath id="clip-tabpanel">
      <rect width="84" height="84"/>
    </clipPath>
  </defs>
  <g id="tabpanel" clip-path="url(#clip-tabpanel)">
    <rect width="84" height="84" fill="#fff"/>
    <g id="Group_296" data-name="Group 296" transform="translate(-782 -573)">
      <path id="Union_8" data-name="Union 8" d="M3,14.333H81a3,3,0,0,1,3,3v78a3,3,0,0,1-3,3H3a3,3,0,0,1-3-3v-78A3,3,0,0,1,3,14.333Z" transform="translate(782 558.667)" fill="#d0e0f0"/>
      <g transform="matrix(1, 0, 0, 1, 782, 573)" filter="url(#Union_32)">
        <path id="Union_32-2" data-name="Union 32" d="M3,52a3,3,0,0,1-3-3V3A3,3,0,0,1,3,0H17a3,3,0,0,1,3,3v8H70V49a3,3,0,0,1-3,3Z" transform="translate(7 16)" fill="#fff"/>
      </g>
      <path id="Rectangle_602" data-name="Rectangle 602" d="M3,0H17a3,3,0,0,1,3,3v8a0,0,0,0,1,0,0H0a0,0,0,0,1,0,0V3A3,3,0,0,1,3,0Z" transform="translate(815 589)" fill="#185a69"/>
      <path id="Rectangle_604" data-name="Rectangle 604" d="M3,0H17a3,3,0,0,1,3,3v8a0,0,0,0,1,0,0H0a0,0,0,0,1,0,0V3A3,3,0,0,1,3,0Z" transform="translate(839 589)" fill="#185a69"/>
    </g>
  </g>
</svg>
