<svg height="84" viewBox="0 0 84 84" width="84" xmlns="http://www.w3.org/2000/svg"><g transform="translate(-164 -573)"><g stroke="#185a69" stroke-width="4"><path d="m166 575h80v80h-80z" fill="#eaeaea"/><g fill="#fff"><rect height="39" rx="1" stroke="none" width="56" x="178" y="602"/><rect fill="none" height="43" rx="3" width="60" x="176" y="600"/></g><path d="m1 0h13a1 1 0 0 1 1 1v9a0 0 0 0 1 0 0h-15a0 0 0 0 1 0 0v-9a1 1 0 0 1 1-1z" fill="#185a69" transform="translate(198 590)"/><path d="m1 0h13a1 1 0 0 1 1 1v9a0 0 0 0 1 0 0h-15a0 0 0 0 1 0 0v-9a1 1 0 0 1 1-1z" fill="#fff" transform="translate(176 590)"/><path d="m1 0h13a1 1 0 0 1 1 1v9a0 0 0 0 1 0 0h-14a1 1 0 0 1 -1-1v-8a1 1 0 0 1 1-1z" fill="#185a69" transform="translate(221 590)"/></g><path d="m178 593h11v11h-11z" fill="#fff"/></g></svg>