<svg xmlns="http://www.w3.org/2000/svg" xmlns:xlink="http://www.w3.org/1999/xlink" width="84" height="84" viewBox="0 0 84 84">
  <defs>
    <filter id="Rectangle_606" x="-0.5" y="1.5" width="85" height="33" filterUnits="userSpaceOnUse">
      <feOffset input="SourceAlpha"/>
      <feGaussianBlur stdDeviation="2.5" result="blur"/>
      <feFlood flood-color="#aac7e5"/>
      <feComposite operator="in" in2="blur"/>
      <feComposite in="SourceGraphic"/>
    </filter>
    <filter id="Rectangle_608" x="-0.5" y="23.5" width="85" height="60" filterUnits="userSpaceOnUse">
      <feOffset input="SourceAlpha"/>
      <feGaussianBlur stdDeviation="2.5" result="blur-2"/>
      <feFlood flood-color="#aac7e5"/>
      <feComposite operator="in" in2="blur-2"/>
      <feComposite in="SourceGraphic"/>
    </filter>
    <clipPath id="clip-toolbar">
      <rect width="84" height="84"/>
    </clipPath>
  </defs>
  <g id="toolbar" clip-path="url(#clip-toolbar)">
    <rect width="84" height="84" fill="#fff"/>
    <g id="Group_295" data-name="Group 295" transform="translate(-890 -572)">
      <path id="Union_33" data-name="Union 33" d="M3,14.333H81a3,3,0,0,1,3,3v78a3,3,0,0,1-3,3H3a3,3,0,0,1-3-3v-78A3,3,0,0,1,3,14.333Z" transform="translate(890 557.667)" fill="#d0e0f0"/>
      <g transform="matrix(1, 0, 0, 1, 890, 572)" filter="url(#Rectangle_606)">
        <rect id="Rectangle_606-2" data-name="Rectangle 606" width="70" height="18" rx="3" transform="translate(7 9)" fill="#fff"/>
      </g>
      <g transform="matrix(1, 0, 0, 1, 890, 572)" filter="url(#Rectangle_608)">
        <rect id="Rectangle_608-2" data-name="Rectangle 608" width="70" height="45" rx="3" transform="translate(7 31)" fill="#fff"/>
      </g>
      <rect id="Rectangle_609" data-name="Rectangle 609" width="46" height="2" transform="translate(904 623)" fill="#6a6a6a"/>
      <rect id="Rectangle_612" data-name="Rectangle 612" width="39" height="2" transform="translate(904 632)" fill="#6a6a6a"/>
      <rect id="Rectangle_610" data-name="Rectangle 610" width="42" height="2" transform="translate(904 614)" fill="#6a6a6a"/>
      <rect id="Rectangle_613" data-name="Rectangle 613" width="14" height="6" rx="2" transform="translate(943 593) rotate(180)" fill="#215a9c"/>
      <rect id="Rectangle_614" data-name="Rectangle 614" width="14" height="6" rx="2" transform="translate(961 593) rotate(180)" fill="#215a9c"/>
      <rect id="Rectangle_615" data-name="Rectangle 615" width="9" height="6" rx="2" transform="translate(912 593) rotate(180)" fill="#215a9c"/>
      <rect id="Rectangle_616" data-name="Rectangle 616" width="9" height="6" rx="2" transform="translate(925 593) rotate(180)" fill="#215a9c"/>
    </g>
  </g>
</svg>
