<svg height="84" viewBox="0 0 84 84" width="84" xmlns="http://www.w3.org/2000/svg"><path d="m2 2h80v80h-80z" fill="#eaeaea" stroke="#185a69" stroke-width="4"/><path d="m14.992 18.992h-13.992a3 3 0 0 1 -3-3v-14.992a3 3 0 0 1 3-3h41a3 3 0 0 1 3 3v14.992a3 3 0 0 1 -3 3h-13.991l-6.509 7.758z" fill="#fff" stroke="#185a69" stroke-width="4" transform="translate(22.5 16.25)"/><path d="m25.5 21h26v2h-26z" fill="#6a6a6a"/><path d="m25.5 27h18v2h-18z" fill="#6a6a6a"/><circle cx="43.5" cy="59.5" fill="#185a69" r="10.5"/><g fill="#fff"><path d="m0 0h2v8h-2z" transform="matrix(-1 0 0 -1 44.5 65.32)"/><path d="m0 0h2v2h-2z" transform="matrix(-1 0 0 -1 44.5 55.32)"/></g></svg>