<svg height="84" viewBox="0 0 84 84" width="84" xmlns="http://www.w3.org/2000/svg"><g transform="translate(-280 -573)"><path d="m282 575h80v80h-80z" fill="#eaeaea" stroke="#185a69" stroke-width="4"/><rect fill="#fff" height="16" rx="1" stroke="#185a69" stroke-width="4" width="64" x="290" y="583"/><g fill="#185a69"><rect height="6" rx="2" transform="matrix(-1 0 0 -1 302 594)" width="6"/><rect height="6" rx="2" transform="matrix(-1 0 0 -1 312 594)" width="6"/><rect height="6" rx="2" transform="matrix(-1 0 0 -1 330 594)" width="14"/><rect height="6" rx="2" transform="matrix(-1 0 0 -1 348 594)" width="14"/></g><g fill="#fff" stroke="#185a69" stroke-width="4"><rect height="36" rx="1" stroke="none" width="60" x="292" y="608"/><rect fill="none" height="40" rx="3" width="64" x="290" y="606"/></g><path d="m298.5 616h40v2h-40z" fill="#6a6a6a"/><path d="m298.5 624h45v2h-45z" fill="#6a6a6a"/><path d="m298.5 632h33v2h-33z" fill="#6a6a6a"/></g></svg>