<svg xmlns="http://www.w3.org/2000/svg" xmlns:xlink="http://www.w3.org/1999/xlink" width="84" height="84" viewBox="0 0 84 84">
  <defs>
    <filter id="Rectangle_629" x="-1.5" y="-1.5" width="87" height="87" filterUnits="userSpaceOnUse">
      <feOffset input="SourceAlpha"/>
      <feGaussianBlur stdDeviation="2.5" result="blur"/>
      <feFlood flood-color="#aac7e5"/>
      <feComposite operator="in" in2="blur"/>
      <feComposite in="SourceGraphic"/>
    </filter>
    <clipPath id="clip-treeview">
      <rect width="84" height="84"/>
    </clipPath>
  </defs>
  <g id="treeview" clip-path="url(#clip-treeview)">
    <rect width="84" height="84" fill="#fff"/>
    <g id="Group_299" data-name="Group 299" transform="translate(-780 -681)">
      <path id="Union_37" data-name="Union 37" d="M3,14.333H81a3,3,0,0,1,3,3v78a3,3,0,0,1-3,3H3a3,3,0,0,1-3-3v-78A3,3,0,0,1,3,14.333Z" transform="translate(780 666.667)" fill="#d0e0f0"/>
      <g transform="matrix(1, 0, 0, 1, 780, 681)" filter="url(#Rectangle_629)">
        <rect id="Rectangle_629-2" data-name="Rectangle 629" width="72" height="72" rx="3" transform="translate(6 6)" fill="#fff"/>
      </g>
      <path id="Icon_ionic-md-arrow-dropup" data-name="Icon ionic-md-arrow-dropup" d="M9,13.5l4,4,4-4Z" transform="translate(781 700.674)" fill="#185a69"/>
      <path id="Icon_ionic-md-arrow-dropup-2" data-name="Icon ionic-md-arrow-dropup" d="M9,13.5l4,4,4-4Z" transform="translate(778.5 764.174) rotate(-90)" fill="#185a69"/>
      <rect id="Rectangle_633" data-name="Rectangle 633" width="21" height="2" transform="translate(790 697)" fill="#6a6a6a"/>
      <rect id="Rectangle_634" data-name="Rectangle 634" width="21" height="2" transform="translate(826 697)" fill="#6a6a6a"/>
      <rect id="Rectangle_635" data-name="Rectangle 635" width="11" height="2" transform="translate(801 716)" fill="#6a6a6a"/>
      <rect id="Rectangle_640" data-name="Rectangle 640" width="27" height="2" transform="translate(825 716)" fill="#6a6a6a"/>
      <rect id="Rectangle_642" data-name="Rectangle 642" width="11" height="2" transform="translate(801 749)" fill="#6a6a6a"/>
      <rect id="Rectangle_641" data-name="Rectangle 641" width="13" height="2" transform="translate(826 749)" fill="#6a6a6a"/>
      <rect id="Rectangle_643" data-name="Rectangle 643" width="72" height="15" transform="translate(786 725)" fill="#e1ecf7"/>
      <rect id="Rectangle_636" data-name="Rectangle 636" width="8" height="2" transform="translate(801 731)" fill="#215a9c"/>
      <rect id="Rectangle_638" data-name="Rectangle 638" width="22" height="2" transform="translate(825 731)" fill="#215a9c"/>
      <rect id="Rectangle_631" data-name="Rectangle 631" width="72" height="2" transform="translate(786 707)" fill="#215a9c"/>
      <rect id="Rectangle_630" data-name="Rectangle 630" width="72" height="2" transform="translate(786 740)" fill="#215a9c"/>
      <rect id="Rectangle_632" data-name="Rectangle 632" width="72" height="2" transform="translate(816 759) rotate(-90)" fill="#215a9c"/>
    </g>
  </g>
</svg>
