<svg height="84" viewBox="0 0 84 84" width="84" xmlns="http://www.w3.org/2000/svg"><path d="m2 2h80v80h-80z" fill="#fff" stroke="#185a69" stroke-width="4"/><g fill="#6a6a6a"><path d="m34 19.5h37v2h-37z"/><path d="m48 38.5h23v2h-23z"/><path d="m48 61.5h23v2h-23z"/></g><path d="m14.914 10.44-1.886 3.233a1.667 1.667 0 0 1 -1.44.827h-10.415a.625.625 0 0 1 -.54-.94l1.886-3.233a1.667 1.667 0 0 1 1.439-.827h10.416a.625.625 0 0 1 .54.94zm-10.956-1.773h8.542v-1.25a1.25 1.25 0 0 0 -1.25-1.25h-4.167l-1.666-1.667h-4.167a1.25 1.25 0 0 0 -1.25 1.25v7.241l1.8-3.084a2.508 2.508 0 0 1 2.158-1.24z" fill="#185a69" transform="translate(13 9.5)"/><path d="m5.833 3.542v-3.542h-5.208a.624.624 0 0 0 -.625.625v12.083a.624.624 0 0 0 .625.625h8.75a.624.624 0 0 0 .625-.625v-8.541h-3.542a.627.627 0 0 1 -.625-.625zm4.167-.368v.159h-3.333v-3.333h.159a.625.625 0 0 1 .443.182l2.549 2.552a.623.623 0 0 1 .182.44z" fill="#185a69" transform="translate(29 33)"/><path d="m5.833 3.542v-3.542h-5.208a.624.624 0 0 0 -.625.625v12.083a.624.624 0 0 0 .625.625h8.75a.624.624 0 0 0 .625-.625v-8.541h-3.542a.627.627 0 0 1 -.625-.625zm4.167-.368v.159h-3.333v-3.333h.159a.625.625 0 0 1 .443.182l2.549 2.552a.623.623 0 0 1 .182.44z" fill="#185a69" transform="translate(29 56)"/></svg>