<svg height="84" viewBox="0 0 84 84" width="84" xmlns="http://www.w3.org/2000/svg"><path d="m2 2h80v80h-80z" fill="#fff" stroke="#185a69" stroke-width="4"/><path d="m9 13.5 4 4 4-4z" fill="#185a69" transform="translate(-1 18.674)"/><path d="m9 13.5 4 4 4-4z" fill="#185a69" transform="matrix(0 -1 1 0 -3.5 85.174)"/><g fill="#6a6a6a"><path d="m8 13h21v2h-21z"/><path d="m45.146 13h21v2h-21z"/><path d="m19.123 33.826h12.877v2h-12.877z"/><path d="m44 33.826h32v2h-32z"/><path d="m19.123 70.326h12.877v2h-12.877z"/><path d="m45.146 70.326h12.877v2h-12.877z"/></g><path d="m4 40h76v11h-76z" fill="#eaeaea"/><path d="m19.123 43.826h7.877v2h-7.877z" fill="#6a6a6a"/><path d="m44 43.826h22.146v2h-22.146z" fill="#6a6a6a"/><path d="m19.123 53.826h12.877v2h-12.877z" fill="#6a6a6a"/><path d="m44 53.826h26v2h-26z" fill="#6a6a6a"/><path d="m2 23h80v2h-80z" fill="#185a69"/><path d="m2 61h80v2h-80z" fill="#185a69"/><path d="m0 0h79v2h-79z" fill="#185a69" transform="matrix(0 -1 1 0 37 82)"/></svg>