<svg height="84" viewBox="0 0 84 84" width="84" xmlns="http://www.w3.org/2000/svg"><g transform="translate(-280 -684)"><path d="m282 686h80v80h-80z" fill="#eaeaea" stroke="#185a69" stroke-width="4"/><rect fill="#185a69" height="16" rx="1" stroke="#185a69" stroke-width="4" width="64" x="290" y="694"/><g fill="#fff" stroke="#185a69" stroke-width="4"><rect height="50" rx="1" stroke="none" width="60" x="292" y="705"/><rect fill="none" height="54" rx="3" width="64" x="290" y="703"/></g><g fill="#185a69"><path d="m0 0h52v2h-52z" transform="matrix(0 -1 1 0 323 756)"/><path d="m0 0h52v2h-52z" transform="matrix(0 -1 1 0 319 756)"/><path d="m324 727h9v2h-9z"/><path d="m0 0 4 4 4-4z" transform="matrix(0 -1 1 0 330 732)"/><path d="m0 0h9v2h-9z" transform="matrix(-1 0 0 -1 319 729)"/><path d="m0 0 4 4 4-4z" transform="matrix(0 1 -1 0 313 724)"/></g></g></svg>